<svg xmlns="http://www.w3.org/2000/svg" viewBox="0 0 1200 630" width="1200" height="630">
  <defs>
    <linearGradient id="sky" x1="0" y1="0" x2="0" y2="1">
      <stop offset="0%" stop-color="#e1f4ec"/>
      <stop offset="100%" stop-color="#f6f9f6"/>
    </linearGradient>
    <linearGradient id="ink" x1="0" y1="0" x2="1" y2="0">
      <stop offset="0%" stop-color="#1d3b31"/>
      <stop offset="70%" stop-color="#2b9678"/>
      <stop offset="100%" stop-color="#4ebfd4"/>
    </linearGradient>
  </defs>

  <rect width="1200" height="630" fill="url(#sky)"/>
  <circle cx="140" cy="120" r="200" fill="#34b08e" fill-opacity="0.12"/>
  <circle cx="1080" cy="90" r="170" fill="#4ebfd4" fill-opacity="0.12"/>

  <path d="M0 470 L160 405 L320 480 L470 385 L640 490 L800 400 L960 495 L1120 410 L1200 460 L1200 630 L0 630 Z" fill="#34b08e" fill-opacity="0.18"/>
  <path d="M0 530 L180 480 L360 545 L540 470 L720 552 L900 478 L1080 548 L1200 505 L1200 630 L0 630 Z" fill="#34b08e" fill-opacity="0.28"/>

  <text x="96" y="270" font-family="Quicksand, PingFang SC, Microsoft YaHei, sans-serif" font-size="88" font-weight="700" fill="url(#ink)">山兮的小屋</text>
  <text x="98" y="336" font-family="Quicksand, PingFang SC, Microsoft YaHei, sans-serif" font-size="32" font-weight="500" fill="#5c7a6d">一个后端方向软件工程学生的自留地</text>
  <text x="98" y="388" font-family="Quicksand, PingFang SC, Microsoft YaHei, sans-serif" font-size="26" font-weight="500" fill="#7d9a8c">记录代码、生活，与那些微小而确定的快乐</text>

  <rect x="96" y="430" width="150" height="44" rx="22" fill="#34b08e" fill-opacity="0.18"/>
  <text x="171" y="459" text-anchor="middle" font-family="Quicksand, sans-serif" font-size="22" font-weight="600" fill="#2b7d64">@shanxi</text>
</svg>
